<svg xmlns="http://www.w3.org/2000/svg" width="23.819" height="25" viewBox="0 0 23.819 25">
  <g id="_01_align_center" data-name="01 align center" transform="translate(-0.494 0.004)">
    <path id="Path_19958" data-name="Path 19958" d="M24.2,16.869,21.491,7.111A9.706,9.706,0,0,0,2.662,7.6L.568,17.025a3.124,3.124,0,0,0,3.049,3.8H7.373a5.206,5.206,0,0,0,10.2,0H21.19A3.124,3.124,0,0,0,24.2,16.869ZM12.475,22.908a3.124,3.124,0,0,1-2.932-2.083h5.864a3.124,3.124,0,0,1-2.932,2.083Zm9.543-4.576a1.034,1.034,0,0,1-.833.411H3.617A1.041,1.041,0,0,1,2.6,17.476L4.694,8.052a7.623,7.623,0,0,1,14.786-.387l2.707,9.758A1.034,1.034,0,0,1,22.018,18.332Z" transform="translate(0 0)" fill="#fff"/>
  </g>
</svg>
