<?xml version="1.0" encoding="utf-8"?>
<!-- Generator: Adobe Illustrator 23.0.3, SVG Export Plug-In . SVG Version: 6.00 Build 0)  -->
<svg version="1.1" id="Layer_1" xmlns="http://www.w3.org/2000/svg" xmlns:xlink="http://www.w3.org/1999/xlink" x="0px" y="0px"
	 viewBox="0 0 469.3 469.4" style="enable-background:new 0 0 469.3 469.4;" xml:space="preserve">
<style type="text/css">
	.st0{fill:#666666;}
</style>
<path class="st0" d="M455.1,116.5c-7.9,0-14.3,6.4-14.3,14.3v260.3c0,27.5-22.4,49.9-49.9,49.9H78.4c-27.5,0-49.9-22.4-49.9-49.9
	V78.5c0-27.5,22.4-49.9,49.9-49.9h312.5c7.9,0,14.3-6.4,14.3-14.3S398.8,0,390.9,0H78.4C35.2,0.1,0,35.3,0,78.5V391
	c0,43.2,35.2,78.4,78.4,78.4h312.5c43.2,0,78.4-35.2,78.4-78.4V130.8C469.3,122.9,462.9,116.5,455.1,116.5z"/>
</svg>
