<?xml version="1.0" encoding="utf-8"?>
<!-- Generator: Adobe Illustrator 23.0.3, SVG Export Plug-In . SVG Version: 6.00 Build 0)  -->
<svg version="1.1" id="Layer_1" xmlns="http://www.w3.org/2000/svg" xmlns:xlink="http://www.w3.org/1999/xlink" x="0px" y="0px"
	 viewBox="0 0 26.78 25.18" style="enable-background:new 0 0 26.78 25.18;" xml:space="preserve">
<style type="text/css">
	.st0{fill:#565656;}
</style>
<path class="st0" d="M20.23,9.33c-0.35,0-0.63,0.28-0.63,0.63v11.57c0,1.22-1,2.22-2.22,2.22H3.49c-1.22,0-2.22-0.99-2.22-2.22V7.64
	c0-1.22,1-2.22,2.22-2.22h13.89c0.35,0,0.63-0.28,0.63-0.63c0-0.35-0.28-0.63-0.63-0.63H3.49C1.57,4.16,0,5.72,0,7.64v13.89
	c0,1.92,1.57,3.49,3.49,3.49h13.89c1.92,0,3.49-1.56,3.49-3.49V9.96C20.86,9.61,20.58,9.33,20.23,9.33z"/>
<path class="st0" d="M25.8,0.48c-0.26-0.26-0.69-0.26-0.95,0L11.39,13.94l-3.36-3.36c-0.26-0.26-0.69-0.26-0.95,0
	c-0.26,0.26-0.26,0.69,0,0.95l3.84,3.84c0.13,0.13,0.3,0.2,0.47,0.2s0.34-0.06,0.47-0.2l0,0L25.8,1.43
	C26.07,1.17,26.07,0.74,25.8,0.48z"/>
</svg>
