<?xml version="1.0" encoding="utf-8"?>
<!-- Generator: Adobe Illustrator 23.0.4, SVG Export Plug-In . SVG Version: 6.00 Build 0)  -->
<svg version="1.1" id="Layer_1" xmlns="http://www.w3.org/2000/svg" xmlns:xlink="http://www.w3.org/1999/xlink" x="0px" y="0px"
	 viewBox="0 0 512 512" style="enable-background:new 0 0 512 512;" xml:space="preserve">
<style type="text/css">
	.st0{fill:#FFFFFF;}
</style>
<g>
	<g>
		<path class="st0" d="M286.2,256L505.7,36.4c8.3-8.3,8.3-21.8,0-30.2s-21.8-8.3-30.2,0L256,225.8L36.4,6.3
			c-8.3-8.3-21.8-8.3-30.2,0s-8.3,21.8,0,30.2L225.8,256L6.3,475.6c-8.3,8.3-8.3,21.8,0,30.2c4.2,4.2,9.6,6.2,15.1,6.2
			s10.9-2.1,15.1-6.2L256,286.2l219.6,219.6c4.2,4.2,9.6,6.2,15.1,6.2s10.9-2.1,15.1-6.2c8.3-8.3,8.3-21.8,0-30.2L286.2,256z"/>
	</g>
</g>
</svg>
