<?xml version="1.0" encoding="utf-8"?>
<!-- Generator: Adobe Illustrator 23.1.1, SVG Export Plug-In . SVG Version: 6.00 Build 0)  -->
<svg version="1.1" id="Layer_1" xmlns="http://www.w3.org/2000/svg" xmlns:xlink="http://www.w3.org/1999/xlink" x="0px" y="0px"
	 viewBox="0 0 174.3 150" style="enable-background:new 0 0 174.3 150;" xml:space="preserve">
<style type="text/css">
	.st0{fill:#FFFFFF;}
</style>
<g>
	<path class="st0" d="M62.6,67.2H34.2v11.2h15.5c-1.1,8.4-7.1,14-15.3,14c-10.2,0-17.1-8.9-17.1-22.2c0-13.8,6.4-22.2,17.1-22.2
		c6.1,0,10.4,2.8,13.8,8.6l0.8,1.8l9.5-7.6l-0.8-1.3c-5.8-8.9-13.4-13-23.7-13c-8.6,0-16,3.5-21.1,9.3C7.4,52,4.6,60.2,4.6,70.1
		c0,10.2,2.6,17.9,8.2,24.4c5.4,6.1,12.7,9.5,21.4,9.5c11.7,0,20.1-5.6,25.5-16.8c2.1-4.8,3.3-10.7,2.8-18.3v-1.6H62.6z"/>
	<polygon class="st0" points="69,102.7 118.3,102.7 118.3,91.2 81.5,91.2 81.5,74.3 116.3,74.3 116.3,63.1 81.5,63.1 81.5,49.1 
		118.3,49.1 118.3,37.6 69.2,37.6 	"/>
	<polygon class="st0" points="137.1,91.2 137.1,37.6 124.7,37.6 124.7,102.7 172.2,102.7 172.2,91.2 	"/>
	<path class="st0" d="M44,115.6h3.9v22.7H44V115.6z"/>
	<path class="st0" d="M51.4,115.6h16.5v3.5H55.2v6.1h11.7v3.5H55.2v6.7h12.7v3.5H51.4V115.6z"/>
	<path class="st0" d="M71.2,115.6h3.9V135h11.7v3.5H71L71.2,115.6L71.2,115.6z"/>
	<path class="st0" d="M83.7,115.6H102v3.5h-7.4v19.4h-3.9v-19.6h-7.4v-3.3C83.5,115.6,83.7,115.6,83.7,115.6z"/>
	<path class="st0" d="M107.1,130.7c0,0.8,0.2,1.8,0.5,2.1c0.5,0.7,0.7,1.1,1.3,1.5c0.7,0.5,1.1,0.7,2,0.8c0.7,0.2,1.5,0.2,2.1,0.2
		c0.8,0,1.8-0.2,2.1-0.5c0.7-0.2,1.1-0.5,1.5-0.7c0.5-0.5,0.7-0.7,0.7-1.1c0.5-0.5,0.5-0.8,0.5-1.3c0-0.8-0.2-1.5-0.7-2
		c-0.5-0.5-0.7-0.7-1.3-0.8c-0.7-0.5-1.8-0.7-2.8-0.8c-1.1-0.2-2.3-0.7-3.9-1.1c-0.8-0.2-2-0.7-2.3-0.8c-0.7-0.5-1.1-0.8-1.5-1.3
		c-0.5-0.7-0.7-1.1-0.7-1.8c-0.2-0.7-0.2-1.1-0.2-1.8c0-1.1,0.2-2.1,0.7-3c0.7-0.7,1.1-1.5,2-2c0.7-0.7,1.8-0.8,2.6-1.3
		c0.8-0.2,2-0.5,3-0.5s2.1,0.2,3.5,0.5c1.1,0.5,2,0.7,2.8,1.3c0.7,0.7,1.5,1.3,2,2.1c0.5,0.8,0.7,2,0.7,3.3h-3.9
		c-0.2-1.5-0.7-2.3-1.5-3.3c-0.8-0.7-2-0.8-3.5-0.8c-0.5,0-0.8,0-1.5,0.2c-0.7,0-0.8,0.2-1.3,0.7c-0.5,0.2-0.7,0.7-0.8,0.8
		c-0.2,0.5-0.5,0.8-0.5,1.5c0,0.7,0.2,1.5,0.7,2c0.5,0.5,1.1,0.7,2,1.1c0,0,0.5,0.2,0.8,0.2c0.7,0.2,1.3,0.5,2,0.7
		c0.7,0.2,1.5,0.5,2,0.7c0.7,0.2,1.1,0.5,1.5,0.5c0.7,0.2,1.3,0.7,2,0.8c0.7,0.1,0.8,0.8,1.3,1.3s0.7,1.1,0.7,1.8
		c0.2,0.7,0.2,1.1,0.2,2c0,1.3-0.2,2.3-0.7,3.5c-0.5,1.1-1.1,1.8-2,2.1c-0.8,0.7-2,0.8-3,1.3c-1.1,0.2-2.1,0.5-3.5,0.5
		c-1.4,0-2.6-0.2-3.6-0.7s-2.1-0.7-3-1.5c-0.7-0.7-1.5-1.5-2-2.6c-0.7-1.1-0.7-2.1-0.7-3.6L107.1,130.7z"/>
	<path class="st0" d="M131.2,126.4v1.8l0,0c0.5-0.7,0.7-1.1,1.5-1.5c0.7-0.5,1.5-0.5,2.1-0.5c0.8,0,1.8,0.2,2.3,0.7
		c0.7,0.5,1.3,0.7,1.8,1.3c0.5,0.7,0.7,1.3,0.8,2c0.2,0.7,0.5,1.5,0.5,2.3c0,0.7-0.2,1.8-0.5,2.3c-0.2,0.7-0.7,1.3-0.8,2
		c-0.5,0.7-0.8,0.8-1.8,1.3c-0.7,0.5-1.5,0.7-2.3,0.7c-0.5,0-0.7,0-0.8,0c-0.5,0-0.7-0.2-1.1-0.5c-0.5-0.2-0.7-0.5-0.8-0.7
		c-0.5-0.2-0.7-0.7-0.7-0.8l0,0v6.1h-2v-16.2L131.2,126.4z M138.1,130.7c-0.2-0.7-0.5-0.8-0.7-1.3c-0.5-0.5-0.7-0.7-1.1-0.8
		c-0.5-0.5-1.1-0.5-1.8-0.5s-1.1,0.2-1.8,0.5c-0.5,0.2-0.7,0.7-1.1,0.8c-0.5,0.5-0.7,0.8-0.7,1.5c0,0.7-0.2,1.1-0.2,1.8
		s0,1.1,0.2,1.8c0.2,0.7,0.5,0.8,0.7,1.5c0.5,0.5,0.7,0.7,1.1,0.8c0.5,0.2,1.1,0.5,1.8,0.5s1.3-0.2,1.8-0.5c0.5-0.2,0.7-0.7,1.1-0.8
		c0.2-0.5,0.5-0.8,0.7-1.5s0.2-1.1,0.2-1.8C138.4,131.8,138.4,131.2,138.1,130.7z"/>
	<path class="st0" d="M144.2,126.4v2.3l0,0c0.5-0.8,1.1-1.8,1.8-2c0.7-0.5,1.5-0.7,2.6-0.7v2c-0.7,0-1.5,0.2-2,0.5
		c-0.7,0.2-0.8,0.7-1.3,0.8c-0.5,0.5-0.7,0.8-0.7,1.5c-0.2,0.7-0.2,1.3-0.2,2v5.1h-2v-11.7L144.2,126.4z"/>
	<path class="st0" d="M157.5,137.6c-0.8,0.7-2,0.8-3.5,0.8c-0.8,0-1.8-0.2-2.3-0.5c-0.7-0.5-1.3-0.7-1.8-1.3c-0.5-0.7-0.7-1.1-1.1-2
		c-0.2-0.7-0.5-1.5-0.5-2.3s0.2-1.8,0.5-2.3c0.2-0.7,0.7-1.3,1.1-2c0.5-0.7,1.1-0.8,1.8-1.3s1.5-0.5,2.1-0.5c1.1,0,2,0.2,2.6,0.7
		c0.7,0.5,1.3,0.8,1.8,1.8c0.5,0.7,0.7,1.3,0.8,2.1c0.2,0.7,0.2,1.5,0.2,2.1h-8.9c0,0.7,0,0.8,0.2,1.5c0.2,0.5,0.5,0.8,0.7,1.3
		s0.7,0.7,1.1,0.8c0.5,0.2,0.8,0.5,1.8,0.5c0.7,0,1.5-0.2,2-0.7c0.7-0.5,0.8-0.8,1.1-1.8h2C158.8,135.9,158.5,136.8,157.5,137.6z
		 M157.2,129.9c-0.2-0.5-0.5-0.7-0.7-1.1c-0.5-0.5-0.7-0.7-1.1-0.7c-0.5-0.2-0.8-0.2-1.3-0.2c-0.7,0-0.8,0-1.3,0.2
		c-0.5,0.2-0.7,0.5-1.1,0.7c-0.5,0.2-0.7,0.7-0.7,1.1c-0.2,0.5-0.2,0.7-0.5,1.3h7.1C157.3,130.9,157.3,130.2,157.2,129.9z"/>
	<path class="st0" d="M162.9,126.4v1.8l0,0c0.5-0.7,0.7-1.1,1.5-1.5c0.7-0.5,1.5-0.5,2.1-0.5c0.8,0,1.8,0.2,2.3,0.7
		c0.7,0.5,1.3,0.7,1.8,1.3c0.5,0.7,0.7,1.3,0.8,2c0.2,0.7,0.5,1.5,0.5,2.3c0,0.7-0.2,1.8-0.5,2.3c-0.2,0.7-0.7,1.3-0.8,2
		c-0.5,0.7-0.8,0.8-1.8,1.3c-0.7,0.5-1.5,0.7-2.3,0.7c-0.5,0-0.7,0-0.8,0c-0.5,0-0.7-0.2-1.1-0.5c-0.5-0.2-0.7-0.5-0.8-0.7
		c-0.5-0.2-0.7-0.7-0.7-0.8l0,0v6.1h-2v-16.2L162.9,126.4z M170,130.7c-0.2-0.7-0.5-0.8-0.7-1.3c-0.5-0.5-0.7-0.7-1.1-0.8
		c-0.5-0.5-1.1-0.5-1.8-0.5c-0.7,0-1.1,0.2-1.8,0.5c-0.5,0.2-0.7,0.7-1.1,0.8c-0.5,0.5-0.7,0.8-0.7,1.5c0,0.7-0.2,0.8-0.2,1.3
		c0,0.7,0,1.1,0.2,1.8c0.2,0.7,0.5,0.8,0.7,1.5c0.5,0.5,0.7,0.7,1.1,0.8s1.1,0.5,1.8,0.5c0.7,0,1.3-0.2,1.8-0.5
		c0.5-0.2,0.7-0.7,1.1-0.8c0.2-0.5,0.5-0.8,0.7-1.5c0.2-0.7,0.2-1.1,0.2-1.8C170.3,131.8,170,131.2,170,130.7z"/>
	<g>
		<path class="st0" d="M35.9,118.6c-5.1-2.3-14.7-5.6-19.4-6.1c-2-0.2-3.3,0-4.6,1.8s-5.8,10.4-7.4,14.2c-0.7,2-0.7,2.8,0.2,4.8
			c2,3.9,8.9,9.7,11.7,11.7c2.8,2,6.3,1.8,8.4-0.2c0.7-0.7,1.3-1.3,2-2l0,0l0,0c-0.8,0.2-2,0.2-2.8,0.2c-5,0-10.2-2-13-5.8
			c-1.5-2-2.1-4.6-2.1-7.1c0-4.8,3-9.9,8.2-11.9c1.3-0.7,2.6-0.8,3.9-0.8c4.3,0,7.9,2.8,9.5,6.7c0.5,0.8,0.7,2,0.7,3
			c0,3-1.5,5.8-4.1,7.6c-2,1.1-3.6,1.5-5.6,1.5c-2.8,0-5.4-1.1-6.9-3.5c-0.5-1.5-0.7-2.3-0.7-3.5c0-2.1,1.3-4.1,3.5-5.4
			c1.1-0.7,2.3-0.8,3.5-0.8c1.3,0,2.3,0.5,3.5,1.1c0.8,0.7,1.5,1.8,1.5,3c0,0.5,0,0.7-0.2,1.3c-0.5,1.1-1.3,1.8-2.3,2.1
			c-1.1,0.7-2.6,0.7-4.1,0.7c-0.7,0-1.3,0-2-0.2l0,0c0.7,1.3,2.6,2.1,4.8,2.1c1.5,0,3-0.5,4.6-1.3c2-1.1,3-3.3,3-5.4
			c0-0.7-0.2-1.5-0.5-2.1c-1.1-3-4.1-5.1-7.6-5.1c-0.8,0-2,0.2-3.3,0.7c-4.6,2-6.9,5.8-6.9,9.9c0,2,0.7,3.9,2,5.8
			c2,3,6.9,4.8,11.2,4.8c2.3,0,4.6-0.5,6.3-2l0,0l0,0c2.8-3.3,6.9-8.6,8.9-11.9C41.2,123.1,39.4,120,35.9,118.6z"/>
		<path class="st0" d="M22.2,128.1c0.7-0.5,1.1-0.7,1.1-0.8c0-0.2,0-0.5,0-0.7c0-0.5-0.2-0.8-0.7-1.3c-0.5-0.5-1.1-0.7-2-0.7
			c-0.8,0-1.5,0.2-2.1,0.7c-1.3,0.7-2,2-2.1,3c0.8,0.2,1.8,0.2,2.3,0.2C19.9,129,21.3,128.6,22.2,128.1z"/>
	</g>
</g>
<g>
	<path class="st0" d="M5.3,24.7V3.3H14c0.8,0,1.8,0.2,2.3,0.7c0.6,0.5,1.5,0.8,2,1.5c0.7,0.7,1.1,1.3,1.3,2.1
		c0.2,0.8,0.5,1.5,0.5,2.3s-0.2,1.8-0.5,2.6c-0.2,0.8-0.7,1.5-1.3,2.1c-0.2,0.7-0.8,1.1-1.5,1.5c-0.8,0.5-1.8,0.7-2.6,0.7H7.4v7.9
		H5.3V24.7z M7.4,15h6.7c0.7,0,1.1-0.2,1.8-0.5c0.5-0.2,0.8-0.7,1.3-1.1c0.5-0.4,0.7-1.1,0.8-1.5c0.2-0.7,0.2-1.3,0.2-2
		c0-0.7-0.2-1.3-0.5-2c-0.2-0.5-0.7-1.1-0.8-1.5c-0.5-0.5-0.8-0.7-1.5-0.8c-0.7-0.1-1.1-0.5-1.5-0.5H7.4V15z"/>
	<path class="st0" d="M30.1,25.1c-1.1,0-2.1-0.2-3-0.7c-0.9-0.5-1.8-1.1-2.3-1.8c-0.7-0.7-1.3-1.5-1.5-2.6c-0.7-1.1-0.7-2.1-0.7-3.3
		c0-1.1,0.2-2.1,0.7-3.3c0.5-1.2,0.8-2,1.5-2.6c0.7-0.7,1.5-1.3,2.3-1.8s2-0.7,3-0.7c1.1,0,2.1,0.2,3,0.7c0.9,0.5,1.8,1.1,2.3,1.8
		c0.7,0.7,1.3,1.5,1.5,2.6c0.5,1.1,0.7,2.1,0.7,3.3c0,1.1-0.2,2.1-0.7,3c-0.5,1.1-0.8,2-1.5,2.6c-0.7,0.7-1.5,1.3-2.3,1.8
		C32.3,24.7,31.3,25.1,30.1,25.1z M24.5,17c0,0.8,0.2,1.8,0.5,2.3c0.2,0.7,0.7,1.5,1.1,2c0.5,0.7,1.1,1.1,1.8,1.3
		c0.7,0.2,1.3,0.5,2.1,0.5s1.5-0.2,2.1-0.5c0.7-0.5,1.3-0.8,1.8-1.3c0.5-0.7,0.8-1.3,1.3-2s0.5-1.5,0.5-2.3c0-0.8-0.2-1.8-0.5-2.3
		c-0.2-0.8-0.7-1.5-1.3-2c-0.5-0.7-0.8-1.1-1.5-1.5c-0.6-0.5-1.2-0.5-2.1-0.5c-0.8,0-1.5,0.2-2.1,0.5c-0.7,0.2-1.3,0.8-1.8,1.3
		c-0.5,0.7-0.8,1.3-1.3,2C24.7,15.2,24.5,16,24.5,17z"/>
	<path class="st0" d="M60.6,9.1h2l-6.4,15.8h-1.8L51.1,17l-3.3,7.9h-1.8L39.7,9.1h1.9l5.6,13.5l2.8-7.1l-2.6-6.4h1.8l2,5.1l1.8-5.1
		h1.8l-2.6,6.4l2.8,7.1L60.6,9.1z"/>
	<path class="st0" d="M72.5,25.1c-1.1,0-2.1-0.2-3-0.7c-0.9-0.5-1.8-1.1-2.3-1.8c-0.7-0.7-1.3-1.8-1.5-2.6c-0.5-1.1-0.7-2-0.7-3.3
		c0-1.1,0.2-2.1,0.7-3c0.5-1.1,0.8-1.8,1.5-2.6c0.7-0.7,1.5-1.3,2.3-1.8s2-0.7,3-0.7s2.1,0.2,3,0.7c0.8,0.5,1.8,1.1,2.3,1.8
		c0.7,0.7,1.1,1.5,1.5,2.6c0.5,0.8,0.7,2,0.7,3c0,0.2,0,0.2,0,0.5c0,0.2,0,0.2,0,0.5H66.9c0,0.8,0.2,1.8,0.7,2.3
		c0.2,0.7,0.7,1.3,1.3,2c0.7,0.7,1.1,0.8,1.8,1.3c0.7,0.2,1.3,0.5,2.1,0.5c0.5,0,1.1,0,1.5-0.2c0.5-0.2,0.8-0.5,1.3-0.7
		c0.5-0.2,0.8-0.5,1.1-0.8c0.2-0.5,0.7-0.7,0.7-1.1l1.8,0.5c-0.2,0.7-0.7,1.1-1.1,1.5c-0.5,0.5-0.8,0.8-1.5,1.3
		c-0.7,0.5-1.3,0.7-2,0.8C74,24.9,73.1,25.1,72.5,25.1z M78.1,16c0-0.8-0.2-1.5-0.7-2.3c-0.2-0.7-0.7-1.3-1.3-1.8
		c-0.5-0.5-1.1-0.8-1.8-1.1c-0.7-0.2-1.3-0.5-2.1-0.5c-0.7,0-1.5,0.2-2.1,0.5c-0.7,0.2-1.3,0.7-1.8,1.1c-0.5,0.5-0.7,1.1-1.1,1.8
		c-0.5,0.7-0.5,1.5-0.7,2.3H78.1z"/>
	<path class="st0" d="M91.4,10.9c-1.3,0-2.6,0.5-3.5,1.1c-1.1,0.7-1.8,1.8-2.1,3v9.7h-2V9.1h2v3.6c0.5-1.1,1.3-2,2.1-2.8
		s1.8-1.1,2.8-1.1c0.2,0,0.5,0,0.5,0s0.2,0,0.5,0v2H91.4z"/>
	<path class="st0" d="M101.3,25.1c-1.1,0-2.1-0.2-3-0.7c-0.8-0.5-1.8-1.1-2.3-1.8c-0.7-0.7-1.3-1.8-1.5-2.6
		c-0.5-1.1-0.7-2.1-0.7-3.3c0-1.1,0.2-2.1,0.7-3c0.5-1.1,0.8-1.8,1.5-2.6c0.7-0.7,1.5-1.3,2.3-1.8c0.8-0.5,2-0.7,3-0.7
		c1.1,0,2.1,0.2,3,0.7c0.8,0.5,1.8,1.1,2.3,1.8c0.7,0.7,1.1,1.5,1.5,2.6c0.7,0.8,0.7,2,0.7,3c0,0.2,0,0.2,0,0.5c0,0.2,0,0.2,0,0.5
		H96c0,0.8,0.2,1.8,0.7,2.3c0.2,0.7,0.7,1.3,1.3,2c0.7,0.7,1.1,0.8,1.8,1.3c0.7,0.2,1.3,0.5,2.1,0.5c0.5,0,1.1,0,1.5-0.2
		c0.5-0.2,0.8-0.5,1.3-0.7c0.5-0.2,0.8-0.5,1.1-0.8c0.2-0.5,0.7-0.7,0.7-1.1l1.8,0.5c-0.2,0.7-0.7,1.1-1.1,1.5
		c-0.5,0.5-0.8,0.8-1.5,1.3c-0.7,0.5-1.3,0.7-2,0.8C102.9,24.9,102.3,25.1,101.3,25.1z M107.2,16c0-0.8-0.2-1.5-0.7-2.3
		c-0.2-0.7-0.7-1.3-1.3-1.8c-0.5-0.5-1.1-0.8-1.8-1.1c-0.7-0.2-1.3-0.5-2.1-0.5c-0.7,0-1.5,0.2-2.1,0.5c-0.7,0.2-1.1,0.7-1.8,1.1
		c-0.7,0.5-0.8,1.1-1.1,1.8c-0.2,0.7-0.5,1.5-0.7,2.3H107.2z"/>
	<path class="st0" d="M119.1,25.1c-1.1,0-2-0.2-3-0.7c-0.8-0.5-1.8-1.1-2.3-1.8c-0.7-0.7-1.1-1.5-1.5-2.6c-0.5-1.1-0.7-2-0.7-3
		c0-1.1,0.2-2.1,0.5-3.3s0.8-2,1.5-2.6c0.7-0.7,1.3-1.3,2.1-1.8c0.8-0.5,1.8-0.7,2.8-0.7c1.3,0,2.3,0.5,3.5,1.1
		c1.2,0.6,1.8,1.5,2.3,2.6V2.7h2V22c0,0.7,0.2,0.8,0.7,0.8v1.8c-0.5,0-0.7,0-0.8,0c-0.5,0-0.8-0.2-1.3-0.5c-0.2-0.2-0.5-0.7-0.5-1.1
		v-1.8c-0.7,1.1-1.5,2-2.3,2.3C121.3,24.7,120.1,25.1,119.1,25.1z M119.6,23.1c0.5,0,1.1,0,1.5-0.2c0.7-0.2,1.1-0.5,1.5-0.8
		c0.5-0.5,0.8-0.8,1.3-1.3c0.5-0.5,0.7-1.1,0.7-1.5v-4.8c-0.2-0.7-0.5-1.1-0.8-1.5c-0.4-0.5-0.8-0.8-1.3-1.3
		c-0.5-0.5-1.1-0.7-1.5-0.8c-0.5-0.2-1.1-0.2-1.5-0.2c-0.8,0-1.5,0.2-2.1,0.7c-0.7,0.5-1.3,0.8-1.8,1.5c-0.5,0.7-0.8,1.3-1.1,2
		c-0.2,0.8-0.5,1.5-0.5,2.3c0,0.8,0.2,1.8,0.5,2.3c0.2,0.7,0.7,1.5,1.3,2c0.5,0.7,1.1,1.1,1.8,1.3C118,22.9,118.6,23.1,119.6,23.1z"
		/>
	<path class="st0" d="M147.6,25.1c-1.3,0-2.3-0.2-3.3-0.8c-1.1-0.7-1.8-1.5-2.3-2.3v3h-1.8V2.8h2v9.5c0.7-1.1,1.5-2,2.3-2.6
		c0.8-0.7,2.1-1.1,3.5-1.1c1.1,0,2,0.2,2.8,0.7c0.8,0.5,1.5,1.1,2.1,2c0.6,0.9,1.1,1.8,1.3,2.6c0.2,0.8,0.5,2,0.5,3
		c0,1.1-0.2,2.1-0.7,3c-0.5,1.1-0.8,2-1.5,2.6c-0.7,0.7-1.5,1.3-2.3,1.8C149.6,24.9,148.5,25.1,147.6,25.1z M147.1,23.1
		c0.8,0,1.5-0.2,2.3-0.5c0.7-0.5,1.3-0.8,1.8-1.5c0.5-0.7,0.8-1.3,1.1-2c0.2-0.7,0.5-1.5,0.5-2.3c0-0.8-0.2-1.5-0.5-2.3
		c-0.2-0.8-0.7-1.5-1.1-2c-0.5-0.7-1.1-1.1-1.8-1.5c-0.7-0.5-1.3-0.5-2.1-0.5c-0.7,0-1.1,0-1.8,0.2c-0.5,0.2-1.1,0.5-1.5,0.8
		c-0.5,0.5-0.8,0.8-1.3,1.3c-0.5,0.5-0.7,0.8-0.8,1.5v5c0,0.7,0.2,1.1,0.7,1.5c0.5,0.5,0.8,0.8,1.3,1.3c0.5,0.5,1.1,0.7,1.5,0.8
		C146.1,23.1,146.5,23.1,147.1,23.1z"/>
	<path class="st0" d="M159.3,29.7h0.2h0.2c0.2,0,0.5,0,0.7,0s0.5,0,0.5-0.2l0.2-0.2c0-0.2,0.2-0.5,0.5-0.7c0.2-0.2,0.5-0.8,0.7-1.3
		c0.2-0.7,0.7-1.3,0.8-2.3l-6.7-15.8h2.1l5.6,13.8l5.1-13.8h2.3l-7.9,20.3c-0.2,0.7-0.7,1.3-1.3,1.8c-0.5,0.5-1.3,0.7-2.1,0.7
		c-0.5,0-0.7,0-1.1,0v-2.1h0V29.7z"/>
</g>
</svg>
